{
  "accessors": [
    {
      "bufferView": 2,
      "componentType": 5126,
      "count": 65532,
      "max": [
        0.01101068314164877,
        -0.006673241499811411,
        0.05673985555768013
      ],
      "min": [
        -0.013229568488895893,
        -0.043179165571928024,
        -0.03424715995788574
      ],
      "type": "VEC3"
    },
    {
      "bufferView": 2,
      "byteOffset": 786384,
      "componentType": 5126,
      "count": 65532,
      "max": [
        0.9999943375587463,
        0.9991573691368103,
        0.9061795473098755
      ],
      "min": [
        -0.9999997615814209,
        -0.9999949932098389,
        -0.9994595646858215
      ],
      "type": "VEC3"
    },
    {
      "bufferView": 3,
      "componentType": 5126,
      "count": 65532,
      "max": [
        1.0,
        0.8352941274642944,
        0.7647058963775635,
        1.0
      ],
      "min": [
        0.21960784494876862,
        0.13333334028720856,
        0.09803921729326248,
        1.0
      ],
      "type": "VEC4"
    },
    {
      "bufferView": 1,
      "componentType": 5126,
      "count": 65532,
      "max": [
        0.9958170056343079,
        0.9831539988517761
      ],
      "min": [
        0.00024399999529123306,
        0.0002479999966453761
      ],
      "type": "VEC2"
    },
    {
      "bufferView": 0,
      "componentType": 5125,
      "count": 349599,
      "type": "SCALAR"
    },
    {
      "bufferView": 2,
      "byteOffset": 1572768,
      "componentType": 5126,
      "count": 65532,
      "max": [
        0.011874502524733543,
        -0.0007454693550243974,
        0.0587582103908062
      ],
      "min": [
        -0.010614816099405289,
        -0.04340185970067978,
        -0.0412808433175087
      ],
      "type": "VEC3"
    },
    {
      "bufferView": 2,
      "byteOffset": 2359152,
      "componentType": 5126,
      "count": 65532,
      "max": [
        0.9999979734420776,
        0.9980540871620178,
        0.9999886155128479
      ],
      "min": [
        -0.9999982118606567,
        -0.9999309182167053,
        -0.9999740719795227
      ],
      "type": "VEC3"
    },
    {
      "bufferView": 3,
      "byteOffset": 1048512,
      "componentType": 5126,
      "count": 65532,
      "max": [
        1.0,
        0.8901960849761963,
        0.8235294222831726,
        1.0
      ],
      "min": [
        0.23137255012989044,
        0.14509804546833038,
        0.08627451211214066,
        1.0
      ],
      "type": "VEC4"
    },
    {
      "bufferView": 1,
      "byteOffset": 524256,
      "componentType": 5126,
      "count": 65532,
      "max": [
        0.9996680021286011,
        0.9696530103683472
      ],
      "min": [
        0.00024399999529123306,
        0.0002479999966453761
      ],
      "type": "VEC2"
    },
    {
      "bufferView": 0,
      "byteOffset": 1398396,
      "componentType": 5125,
      "count": 332856,
      "type": "SCALAR"
    },
    {
      "bufferView": 2,
      "byteOffset": 3145536,
      "componentType": 5126,
      "count": 65532,
      "max": [
        0.011865753680467606,
        -0.011805746704339981,
        0.00780221214517951
      ],
      "min": [
        -0.01343440730124712,
        -0.034908346831798553,
        -0.04135724902153015
      ],
      "type": "VEC3"
    },
    {
      "bufferView": 2,
      "byteOffset": 3931920,
      "componentType": 5126,
      "count": 65532,
      "max": [
        0.9999979734420776,
        0.9999905228614807,
        0.9998754858970642
      ],
      "min": [
        -0.9999919533729553,
        -0.9999951124191284,
        -0.9999815225601196
      ],
      "type": "VEC3"
    },
    {
      "bufferView": 3,
      "byteOffset": 2097024,
      "componentType": 5126,
      "count": 65532,
      "max": [
        1.0,
        0.9411764740943909,
        0.8666666746139526,
        1.0
      ],
      "min": [
        0.25882354378700256,
        0.11764705926179886,
        0.007843137718737125,
        1.0
      ],
      "type": "VEC4"
    },
    {
      "bufferView": 1,
      "byteOffset": 1048512,
      "componentType": 5126,
      "count": 65532,
      "max": [
        0.9997249841690063,
        0.9821779727935791
      ],
      "min": [
        0.00024399999529123306,
        0.00024399999529123306
      ],
      "type": "VEC2"
    },
    {
      "bufferView": 0,
      "byteOffset": 2729820,
      "componentType": 5125,
      "count": 297816,
      "type": "SCALAR"
    },
    {
      "bufferView": 2,
      "byteOffset": 4718304,
      "componentType": 5126,
      "count": 54082,
      "max": [
        0.01184046920388937,
        -0.0007528368150815368,
        0.05922645330429077
      ],
      "min": [
        -0.010643396526575089,
        -0.0444512777030468,
        -0.04139192774891853
      ],
      "type": "VEC3"
    },
    {
      "bufferView": 2,
      "byteOffset": 5367288,
      "componentType": 5126,
      "count": 54082,
      "max": [
        0.9999960660934448,
        0.9997259974479675,
        0.9999822378158569
      ],
      "min": [
        -0.9999983906745911,
        -0.9999158382415771,
        -0.9999987483024597
      ],
      "type": "VEC3"
    },
    {
      "bufferView": 3,
      "byteOffset": 3145536,
      "componentType": 5126,
      "count": 54082,
      "max": [
        1.0,
        0.9647058844566345,
        0.9372549057006836,
        1.0
      ],
      "min": [
        0.250980406999588,
        0.11764705926179886,
        0.027450980618596077,
        1.0
      ],
      "type": "VEC4"
    },
    {
      "bufferView": 1,
      "byteOffset": 1572768,
      "componentType": 5126,
      "count": 54082,
      "max": [
        0.9996809959411621,
        0.9794480204582214
      ],
      "min": [
        0.00024399999529123306,
        0.00025599999935366213
      ],
      "type": "VEC2"
    },
    {
      "bufferView": 0,
      "byteOffset": 3921084,
      "componentType": 5125,
      "count": 219723,
      "type": "SCALAR"
    }
  ],
  "asset": {
    "extras": {
      "author": "srj.trfmchk (https://sketchfab.com/srj.trfmchk)",
      "license": "COPYRIGHT TO srj.trfmchk",
      "source": "https://sketchfab.com/3d-models/battle-axe-head-khazar-khaganate-0f3db8dc5d364e3fb4bfb6251cd67079",
      "title": "Battle-axe head (Khazar Khaganate)"
    },
    "generator": "Sketchfab-17.8.0",
    "version": "2.0"
  },
  "bufferViews": [
    {
      "buffer": 0,
      "byteLength": 4799976,
      "name": "floatBufferViews",
      "target": 34963
    },
    {
      "buffer": 0,
      "byteLength": 2005424,
      "byteOffset": 4799976,
      "byteStride": 8,
      "name": "floatBufferViews",
      "target": 34962
    },
    {
      "buffer": 0,
      "byteLength": 6016272,
      "byteOffset": 6805400,
      "byteStride": 12,
      "name": "floatBufferViews",
      "target": 34962
    },
    {
      "buffer": 0,
      "byteLength": 4010848,
      "byteOffset": 12821672,
      "byteStride": 16,
      "name": "floatBufferViews",
      "target": 34962
    }
  ],
  "buffers": [
    {
      "byteLength": 16832520,
      "uri": "scene.bin"
    }
  ],
  "extensionsRequired": [
    "KHR_materials_pbrSpecularGlossiness"
  ],
  "extensionsUsed": [
    "KHR_materials_pbrSpecularGlossiness"
  ],
  "images": [
    {
      "uri": "textures/WEB_Iron_battle-axe_head_Saltiv_culture_8th-10th_AD_diffuse.png"
    }
  ],
  "materials": [
    {
      "extensions": {
        "KHR_materials_pbrSpecularGlossiness": {
          "diffuseFactor": [
            1.0,
            1.0,
            1.0,
            1.0
          ],
          "diffuseTexture": {
            "index": 0
          },
          "glossinessFactor": 0.0,
          "specularFactor": [
            0.0,
            0.0,
            0.0
          ]
        }
      },
      "name": "WEB_Iron_battle-axe_head_Saltiv_culture_8th-10th_AD"
    }
  ],
  "meshes": [
    {
      "name": "Object_0",
      "primitives": [
        {
          "attributes": {
            "COLOR_0": 2,
            "NORMAL": 1,
            "POSITION": 0,
            "TEXCOORD_0": 3
          },
          "indices": 4,
          "material": 0,
          "mode": 4
        }
      ]
    },
    {
      "name": "Object_1",
      "primitives": [
        {
          "attributes": {
            "COLOR_0": 7,
            "NORMAL": 6,
            "POSITION": 5,
            "TEXCOORD_0": 8
          },
          "indices": 9,
          "material": 0,
          "mode": 4
        }
      ]
    },
    {
      "name": "Object_2",
      "primitives": [
        {
          "attributes": {
            "COLOR_0": 12,
            "NORMAL": 11,
            "POSITION": 10,
            "TEXCOORD_0": 13
          },
          "indices": 14,
          "material": 0,
          "mode": 4
        }
      ]
    },
    {
      "name": "Object_3",
      "primitives": [
        {
          "attributes": {
            "COLOR_0": 17,
            "NORMAL": 16,
            "POSITION": 15,
            "TEXCOORD_0": 18
          },
          "indices": 19,
          "material": 0,
          "mode": 4
        }
      ]
    }
  ],
  "nodes": [
    {
      "children": [
        1
      ],
      "matrix": [
        -4.440892098500626e-16,
        -3.3306690738754696e-16,
        1.0,
        0.0,
        1.1102230246251565e-16,
        -1.0,
        -2.220446049250313e-16,
        0.0,
        1.0,
        -7.395570986446986e-32,
        3.3306690738754696e-16,
        0.0,
        0.0,
        0.0,
        0.0,
        1.0
      ],
      "name": "Sketchfab_model"
    },
    {
      "children": [
        2,
        3,
        4,
        5
      ],
      "name": "WEB_Iron_battle-axe_head_Saltiv_culture_8th-10th_AD.obj.cleaner.materialmerger.gles"
    },
    {
      "mesh": 0,
      "name": "Object_2"
    },
    {
      "mesh": 1,
      "name": "Object_3"
    },
    {
      "mesh": 2,
      "name": "Object_4"
    },
    {
      "mesh": 3,
      "name": "Object_5"
    }
  ],
  "samplers": [
    {
      "magFilter": 9729,
      "minFilter": 9987,
      "wrapS": 10497,
      "wrapT": 10497
    }
  ],
  "scene": 0,
  "scenes": [
    {
      "name": "Sketchfab_Scene",
      "nodes": [
        0
      ]
    }
  ],
  "textures": [
    {
      "sampler": 0,
      "source": 0
    }
  ]
}
